<svg xmlns="http://www.w3.org/2000/svg" width="25.15" height="24" viewBox="0 0 25.15 24"><path d="M26.809,15.163h-1.28V26.289H4.191V9.524H6.477V8H4A1.356,1.356,0,0,0,2.667,9.379V26.434A1.356,1.356,0,0,0,4,27.814H25.719a1.356,1.356,0,0,0,1.334-1.379V15.148Z" transform="translate(-2.666 -3.813)" fill="#726659"/><path d="M10.667,18.667h1.524v1.524H10.667Z" transform="translate(-6.094 -8.383)" fill="#726659"/><path d="M18.667,18.667h1.524v1.524H18.667Z" transform="translate(-9.522 -8.383)" fill="#726659"/><path d="M10.667,25.333h1.524v1.524H10.667Z" transform="translate(-6.094 -11.24)" fill="#726659"/><path d="M18.667,25.333h1.524v1.524H18.667Z" transform="translate(-9.522 -11.24)" fill="#726659"/><path d="M26.667,25.333h1.524v1.524H26.667Z" transform="translate(-12.949 -11.24)" fill="#726659"/><path d="M34.667,25.333h1.524v1.524H34.667Z" transform="translate(-16.377 -11.24)" fill="#726659"/><path d="M10.667,32h1.524v1.524H10.667Z" transform="translate(-6.094 -14.096)" fill="#726659"/><path d="M18.667,32h1.524v1.524H18.667Z" transform="translate(-9.522 -14.096)" fill="#726659"/><path d="M26.667,32h1.524v1.524H26.667Z" transform="translate(-12.949 -14.096)" fill="#726659"/><path d="M34.667,32h1.524v1.524H34.667Z" transform="translate(-16.377 -14.096)" fill="#726659"/><path d="M12.762,8.763A.762.762,0,0,0,13.524,8V3.429a.762.762,0,1,0-1.524,0V8A.762.762,0,0,0,12.762,8.763Z" transform="translate(-6.665 -1.528)" fill="#726659"/><path d="M32.405,1.158,28.046,8.672a.975.975,0,0,0,.838,1.524H37.61a.975.975,0,0,0,.838-1.524L34.089,1.158a.975.975,0,0,0-1.684,0Z" transform="translate(-13.468 -0.675)" fill="#726659"/></svg>