<svg xmlns="http://www.w3.org/2000/svg" width="25.625" height="23" viewBox="0 0 25.625 23">
  <g id="filters-1_outline" transform="translate(-5 -7)">
    <path id="Path_1268" data-name="Path 1268" d="M8.625,7a3.625,3.625,0,0,1,1,7.11V29a1,1,0,0,1-2,0V14.11a3.625,3.625,0,0,1,1-7.11Zm0,5.25A1.625,1.625,0,1,0,7,10.625,1.627,1.627,0,0,0,8.625,12.25ZM25,16.269c.63,0,1.2.424,1.7,1.262q.152.257.3.577.151-.32.3-.577c.547-.925,1.184-1.345,1.892-1.249.869.118,1.43.988,1.43,2.218a3.631,3.631,0,0,1-2.373,3.4l.062.223H25.686l.062-.223a3.631,3.631,0,0,1-2.373-3.4c0-1.23.561-2.1,1.43-2.218A1.459,1.459,0,0,1,25,16.269ZM17.813,22.75a3.625,3.625,0,1,1-3.625,3.625A3.629,3.629,0,0,1,17.813,22.75Zm0,5.25a1.625,1.625,0,1,0-1.625-1.625A1.627,1.627,0,0,0,17.813,28Z" fill="#726659"/>
  </g>
</svg>
