<?xml version="1.0" encoding="utf-8"?>
<!-- Generator: Adobe Illustrator 28.2.0, SVG Export Plug-In . SVG Version: 6.00 Build 0)  -->
<svg version="1.1" id="Layer_1" xmlns="http://www.w3.org/2000/svg" xmlns:xlink="http://www.w3.org/1999/xlink" x="0px" y="0px"
	 viewBox="0 0 25.1 20.9" style="enable-background:new 0 0 25.1 20.9;" xml:space="preserve">
<style type="text/css">
	.st0{fill:#726659;}
</style>
<g transform="translate(0.75 0.778)">
	<g>
		<path class="st0" d="M23.6,20.1h-2.1c-0.4,0-0.8-0.3-0.8-0.8s0.3-0.8,0.8-0.8h1.4v-1.4c0-2-1.6-3.5-3.5-3.5
			c-0.4,0-0.8-0.3-0.8-0.8s0.3-0.8,0.8-0.8c2.8,0,5,2.3,5,5v2.1C24.4,19.7,24,20.1,23.6,20.1z M17.2,20.1H0c-0.4,0-0.8-0.3-0.8-0.8
			v-2.1c0-2.8,2.3-5,5-5h8.6c2.8,0,5,2.3,5,5v2.1C17.9,19.7,17.6,20.1,17.2,20.1z M0.8,18.6h15.7v-1.4c0-2-1.6-3.5-3.5-3.5H4.3
			c-2,0-3.5,1.6-3.5,3.5V18.6z M8.6,9.3c-2.8,0-5-2.3-5-5c0-2.8,2.3-5,5-5c2.8,0,5,2.3,5,5h0C13.6,7.1,11.4,9.3,8.6,9.3z M8.6,0.7
			C6.6,0.7,5,2.3,5,4.3c0,2,1.6,3.5,3.5,3.5s3.5-1.6,3.5-3.5v0c0-0.9-0.4-1.8-1-2.5C10.4,1.1,9.5,0.7,8.6,0.7z M16.1,9.2
			c-0.3,0-0.6-0.2-0.7-0.6c-0.1-0.4,0.1-0.8,0.5-0.9c0.9-0.2,1.7-0.8,2.2-1.6c0.5-0.8,0.6-1.8,0.4-2.7c-0.3-1.2-1.3-2.2-2.5-2.5
			c-0.4-0.1-0.6-0.5-0.5-0.9c0.1-0.4,0.5-0.6,0.9-0.5C18-0.1,19.4,1.3,19.9,3c0.3,1.3,0.2,2.7-0.5,3.8c-0.7,1.2-1.8,2-3.1,2.3
			C16.2,9.2,16.2,9.2,16.1,9.2z"/>
	</g>
</g>
</svg>
