<svg xmlns="http://www.w3.org/2000/svg" width="34.284" height="34.342" viewBox="0 0 34.284 34.342"><path d="M40.167,16.1a12.433,12.433,0,0,0-.8-4.219,8.777,8.777,0,0,0-5.013-5.013,12.576,12.576,0,0,0-4.162-.8c-1.831-.082-2.412-.1-7.061-.1s-5.245,0-7.063.1a12.576,12.576,0,0,0-4.16.8A8.771,8.771,0,0,0,6.9,11.879a12.478,12.478,0,0,0-.8,4.16c-.082,1.833-.107,2.414-.107,7.063s0,5.243.107,7.063a12.557,12.557,0,0,0,.8,4.164,8.777,8.777,0,0,0,5.015,5.011,12.534,12.534,0,0,0,4.16.857c1.833.082,2.414.107,7.063.107s5.245,0,7.063-.107a12.546,12.546,0,0,0,4.162-.8,8.786,8.786,0,0,0,5.013-5.013,12.539,12.539,0,0,0,.8-4.164c.082-1.832.107-2.412.107-7.063S40.274,17.92,40.167,16.1Zm-17.045,15.8a8.8,8.8,0,1,1,8.8-8.8A8.8,8.8,0,0,1,23.123,31.895Zm9.152-15.876a2.052,2.052,0,1,1,2.05-2.052A2.05,2.05,0,0,1,32.274,16.018Z" transform="translate(-5.994 -5.962)" fill="#fff"/></svg>