<svg xmlns="http://www.w3.org/2000/svg" width="20" height="25.455" viewBox="0 0 20 25.455"><g transform="translate(0 0)"><path d="M21.045,21.091a4.545,4.545,0,1,1,4.545-4.545A4.545,4.545,0,0,1,21.045,21.091Zm0-7.273a2.727,2.727,0,1,0,2.727,2.727A2.727,2.727,0,0,0,21.045,13.818Z" transform="translate(-11.045 -6.545)" fill="#726659"/><path d="M17.5,28.455,9.831,19.41q-.16-.2-.316-.41A9.9,9.9,0,0,1,7.5,13a10,10,0,0,1,20,0,9.9,9.9,0,0,1-2.014,6v0s-.273.358-.314.406ZM10.965,17.9s.213.28.261.34l6.274,7.4,6.282-7.409c.04-.05.253-.332.254-.333A8.092,8.092,0,0,0,25.682,13,8.182,8.182,0,0,0,9.318,13a8.1,8.1,0,0,0,1.648,4.9Z" transform="translate(-7.5 -3)" fill="#726659"/></g></svg>