<svg xmlns="http://www.w3.org/2000/svg" width="18.315" height="18.241" viewBox="0 0 18.315 18.241"><g transform="translate(-4.491 -4.5)"><path d="M20.631,22.741h-.14c-13.751-.772-15.715-12.418-16-16A2.113,2.113,0,0,1,6.46,4.5h3.859a1.439,1.439,0,0,1,1.333.912l.982,2.6a1.558,1.558,0,0,1-.281,1.543L10.88,11.025a6.565,6.565,0,0,0,5.332,5.332l1.543-1.473A1.39,1.39,0,0,1,19.3,14.6l2.666,1.052a1.412,1.412,0,0,1,.842,1.333v3.648A2.171,2.171,0,0,1,20.631,22.741ZM6.6,5.9a.663.663,0,0,0-.7.7v.07c.351,4.139,2.385,13.961,14.663,14.663a.763.763,0,0,0,.772-.631V16.918l-2.666-1.052L16.632,17.9l-.281-.07c-6.1-.772-6.945-6.875-6.945-6.945l-.07-.351L11.3,8.5l-.982-2.6Z"/><path d="M28.4,6V7.4H31.63L27,12.033l.982.982,4.63-4.63v3.227h1.4V6Z" transform="translate(-11.981 -0.798)"/></g></svg>