<?xml version="1.0" encoding="utf-8"?>
<!-- Generator: Adobe Illustrator 28.2.0, SVG Export Plug-In . SVG Version: 6.00 Build 0)  -->
<svg version="1.1" id="Layer_1" xmlns="http://www.w3.org/2000/svg" xmlns:xlink="http://www.w3.org/1999/xlink" x="0px" y="0px"
	 viewBox="0 0 20.6 20.6" style="enable-background:new 0 0 20.6 20.6;" xml:space="preserve">
<g transform="translate(-8.604 -6.527)">
	<g>
		<path d="M26.4,27.1C26.4,27.1,26.4,27.1,26.4,27.1c0,0-0.1,0-0.2,0c-4.6,0.1-9-1.7-12.3-5c-3.3-3.3-5.2-7.6-5.3-12.3V9.4
			c-0.1-1.4,1-2.7,2.5-2.8c0,0,0.1,0,0.2,0h2.9c0.7,0,1.3,0.2,1.8,0.6c1.3,1.1,1.9,4.3,1.6,5.7c-0.2,0.9-0.9,1.6-1.5,2.1
			c1.2,1.9,2.8,3.5,4.6,4.6c0.5-0.6,1.2-1.3,2.1-1.5c1.4-0.3,4.6,0.4,5.7,1.6c0.4,0.5,0.6,1.1,0.6,1.8v2.9c0,0.7-0.3,1.4-0.8,1.9
			C27.8,26.8,27.1,27.1,26.4,27.1z M26.3,25.6c0,0,0.1,0,0.1,0c0,0,0,0,0,0c0.6,0,1.2-0.5,1.2-1.2v-2.9c0,0,0,0,0,0
			c0-0.3-0.1-0.6-0.3-0.8c-0.6-0.7-3.2-1.4-4.2-1.2c-0.5,0.1-0.9,0.6-1.4,1.1c-0.1,0.2-0.3,0.3-0.4,0.4c-0.2,0.2-0.6,0.3-0.9,0.1
			c-2.5-1.4-4.6-3.5-6-6c-0.2-0.3-0.1-0.7,0.1-0.9c0.1-0.1,0.3-0.3,0.4-0.4c0.5-0.4,1-0.9,1.1-1.4c0.2-1-0.4-3.6-1.1-4.2
			c-0.2-0.2-0.5-0.3-0.8-0.3c0,0,0,0,0,0h-2.9c-0.7,0.1-1.2,0.6-1.2,1.3l0,0.5c0.1,4.3,1.8,8.2,4.8,11.2c3,2.9,7,4.5,11.1,4.5
			C26.1,25.6,26.2,25.6,26.3,25.6L26.3,25.6z M24.7,15c-0.4,0-0.7-0.3-0.7-0.6c-0.1-0.6-0.4-1.2-0.9-1.7c-0.4-0.4-1-0.7-1.7-0.8
			c-0.4-0.1-0.7-0.5-0.6-0.9c0.1-0.4,0.5-0.7,0.9-0.6c0.9,0.2,1.8,0.6,2.5,1.2c0.7,0.7,1.1,1.6,1.3,2.5c0.1,0.4-0.2,0.8-0.6,0.9
			C24.7,15,24.7,15,24.7,15z M28.4,14.4c-0.4,0-0.7-0.3-0.7-0.7c-0.2-1.4-0.9-2.8-1.9-3.8c-1-1.1-2.4-1.7-3.8-1.9
			c-0.4-0.1-0.7-0.4-0.7-0.8c0.1-0.4,0.4-0.7,0.8-0.7c1.8,0.2,3.4,1.1,4.7,2.3c1.3,1.2,2.1,2.9,2.3,4.6C29.2,14,28.9,14.4,28.4,14.4
			C28.4,14.4,28.4,14.4,28.4,14.4z"/>
	</g>
</g>
</svg>
