<svg xmlns="http://www.w3.org/2000/svg" width="18.923" height="24" viewBox="0 0 18.923 24">
  <g id="share-outline" transform="translate(-8 -3.5)">
    <path id="Path_1271" data-name="Path 1271" d="M23.808,33.385H11.115A3.119,3.119,0,0,1,8,30.269V20.115A3.119,3.119,0,0,1,11.115,17h2.115a1,1,0,0,1,0,2H11.115A1.117,1.117,0,0,0,10,20.115V30.269a1.117,1.117,0,0,0,1.115,1.115H23.808a1.115,1.115,0,0,0,1.115-1.115V20.115A1.117,1.117,0,0,0,23.808,19H21.692a1,1,0,0,1,0-2h2.115a3.119,3.119,0,0,1,3.115,3.115V30.269a3.115,3.115,0,0,1-3.115,3.115Z" transform="translate(0 -5.885)" fill="#726659"/>
    <path id="Path_1272" data-name="Path 1272" d="M24.962,9.731a1,1,0,0,1-.707-.293L20.731,5.914,17.207,9.438a1,1,0,0,1-1.414-1.414l4.231-4.231a1,1,0,0,1,1.414,0l4.231,4.231a1,1,0,0,1-.707,1.707Z" transform="translate(-3.269)" fill="#726659"/>
    <path id="Path_1273" data-name="Path 1273" d="M24,19.938a1,1,0,0,1-1-1V4.5a1,1,0,0,1,2,0V18.938A1,1,0,0,1,24,19.938Z" transform="translate(-6.538)" fill="#726659"/>
  </g>
</svg>
