<svg xmlns="http://www.w3.org/2000/svg" width="31.037" height="23.547" viewBox="0 0 31.037 23.547">
  <g id="sort-down-alt" transform="translate(-1.498 -9)">
    <g id="Group_104" data-name="Group 104" transform="translate(1.498 9)">
      <path id="Path_1269" data-name="Path 1269" d="M7.921,10.07a1.07,1.07,0,0,0-2.14,0V28.891L3.327,26.436a1.072,1.072,0,1,0-1.515,1.515L6.093,32.23l.015.015a1.064,1.064,0,0,0,1.5-.013l4.281-4.281a1.071,1.071,0,1,0-1.513-1.515L7.921,28.891Zm8.562,1.07a1.07,1.07,0,1,1,0-2.14h2.14a1.07,1.07,0,1,1,0,2.14Zm0,6.421a1.07,1.07,0,1,1,0-2.14H22.9a1.07,1.07,0,0,1,0,2.14Zm0,6.421a1.07,1.07,0,1,1,0-2.14h10.7a1.07,1.07,0,0,1,0,2.14Zm-1.07,5.351a1.07,1.07,0,0,0,1.07,1.07H31.465a1.07,1.07,0,0,0,0-2.14H16.482A1.07,1.07,0,0,0,15.412,29.334Z" transform="translate(-1.498 -9)" fill="#726659"/>
    </g>
  </g>
</svg>
