<svg xmlns="http://www.w3.org/2000/svg" width="25.883" height="26.007" viewBox="0 0 25.883 26.007"><path d="M18.985,15.584c-.322-.161-1.9-.939-2.2-1.048s-.51-.16-.726.163-.831,1.047-1.019,1.261-.376.242-.7.081a8.84,8.84,0,0,1-2.59-1.6,9.693,9.693,0,0,1-1.791-2.231c-.187-.322-.02-.5.141-.657.145-.144.323-.376.483-.563a2.221,2.221,0,0,0,.323-.539.59.59,0,0,0-.027-.563c-.081-.161-.725-1.747-.993-2.392-.262-.627-.528-.542-.725-.553s-.412-.012-.618-.011a1.18,1.18,0,0,0-.858.4,3.611,3.611,0,0,0-1.127,2.686,6.275,6.275,0,0,0,1.314,3.331,14.364,14.364,0,0,0,5.5,4.862,18.2,18.2,0,0,0,1.836.677,4.392,4.392,0,0,0,2.027.128,3.317,3.317,0,0,0,2.174-1.531A2.679,2.679,0,0,0,19.6,15.96c-.08-.134-.295-.215-.618-.376M13.11,23.606h0a10.7,10.7,0,0,1-5.452-1.494l-.39-.231L3.209,22.945,4.29,18.992l-.255-.405a10.712,10.712,0,1,1,9.074,5.019M22.226,3.78A12.89,12.89,0,0,0,1.943,19.328L.114,26.007l6.832-1.792A12.875,12.875,0,0,0,13.1,25.783h.005a12.893,12.893,0,0,0,9.116-22Z" transform="translate(-0.114 0)" fill="#fff"/></svg>