<svg xmlns="http://www.w3.org/2000/svg" xmlns:xlink="http://www.w3.org/1999/xlink" width="35.41" height="33.338" viewBox="0 0 35.41 33.338"><defs><clipPath id="a"><rect width="35.41" height="33.338" fill="none"/></clipPath></defs><g clip-path="url(#a)"><path d="M25.256,8.916c.148-1.7-.222-6.559,3.595-7.523a4.371,4.371,0,0,1,5.188,3.78,21.584,21.584,0,0,1,.074,2.187V22.035H.648a.634.634,0,0,0-.593.889A17.874,17.874,0,0,0,5.021,29.67a6.149,6.149,0,0,0,2.372,1.149c-.222.7-.445,1.408-.7,2.113.408.148.778.259,1.186.408.222-.667.445-1.3.667-1.927.148-.482.148-.482.667-.482H26.4c.3,0,.408.074.482.334.222.7.445,1.371.7,2.075.408-.148.778-.3,1.186-.408-.222-.7-.482-1.408-.7-2.113a8.68,8.68,0,0,0,4.558-3.446,20.529,20.529,0,0,0,2.594-4.225,1.664,1.664,0,0,0,.185-.7V5.877A5.762,5.762,0,0,0,30.778.1a5.63,5.63,0,0,0-6.523,4.521,19.778,19.778,0,0,0-.222,4.3M1.612,23.332H33.705a1.794,1.794,0,0,1-.111.259c-.63,1-1.26,2.038-1.927,3a9.16,9.16,0,0,1-2.409,2.372,4.061,4.061,0,0,1-2.372.7c-6.041,0-12.119-.037-18.159,0a4.756,4.756,0,0,1-3.039-1.075A11.85,11.85,0,0,1,3.132,25.7a23.83,23.83,0,0,1-1.52-2.372" transform="translate(0 0)"/><path d="M79.051,37.352H78.94a.585.585,0,0,1-.593-.593V35.2a.585.585,0,0,1,.593-.593h.111a.585.585,0,0,1,.593.593V36.76a.585.585,0,0,1-.593.593" transform="translate(-54.388 -24.026)"/><path d="M79.051,54.317H78.94a.585.585,0,0,1-.593-.593V52.168a.585.585,0,0,1,.593-.593h.111a.585.585,0,0,1,.593.593v1.557a.585.585,0,0,1-.593.593" transform="translate(-54.388 -35.803)"/></g></svg>