<svg xmlns="http://www.w3.org/2000/svg" xmlns:xlink="http://www.w3.org/1999/xlink" width="42.472" height="31.871" viewBox="0 0 42.472 31.871"><defs><clipPath id="a"><rect width="42.472" height="31.871" transform="translate(0 0)" fill="none"/></clipPath></defs><g transform="translate(0 0)" clip-path="url(#a)"><path d="M38.466,14.925V7.8a7.822,7.822,0,0,0-7.8-7.8H11.77a7.822,7.822,0,0,0-7.8,7.8v7.126A5.953,5.953,0,0,0,0,20.527v1.382a5.977,5.977,0,0,0,3.333,5.353v4.609H4.644V27.759a5.319,5.319,0,0,0,1.312.142h30.56a5.318,5.318,0,0,0,1.312-.142v4.112h1.312V27.262a6,6,0,0,0,3.333-5.353V20.527a6.071,6.071,0,0,0-4.006-5.6M5.282,7.8A6.491,6.491,0,0,1,11.77,1.311h18.9A6.491,6.491,0,0,1,37.154,7.8v5.283a5.608,5.608,0,0,0-2.659-1.631V9.466a2.844,2.844,0,0,0-2.836-2.836h-6.31a2.844,2.844,0,0,0-2.836,2.836v1.808H19.853V9.466a2.845,2.845,0,0,0-2.836-2.836H10.777A2.844,2.844,0,0,0,7.941,9.466v1.985a5.608,5.608,0,0,0-2.659,1.631Zm27.865,4.822a4.02,4.02,0,0,1,3.439,1.985H5.814a4.02,4.02,0,0,1,3.439-1.985ZM9.253,11.274V9.466a1.5,1.5,0,0,1,1.489-1.489h6.31a1.5,1.5,0,0,1,1.489,1.489v1.808Zm23.895,0H23.859V9.466a1.5,1.5,0,0,1,1.489-1.489h6.31a1.5,1.5,0,0,1,1.489,1.489Zm3.333,15.28H5.92a4.622,4.622,0,0,1-4.609-4.609V20.562A4.622,4.622,0,0,1,5.92,15.953H36.48a4.622,4.622,0,0,1,4.609,4.609v1.383a4.6,4.6,0,0,1-4.609,4.609" transform="translate(0 0)"/></g></svg>