<svg xmlns="http://www.w3.org/2000/svg" xmlns:xlink="http://www.w3.org/1999/xlink" width="35.801" height="36.796" viewBox="0 0 35.801 36.796"><defs><clipPath id="a"><rect width="35.801" height="36.796" fill="none"/></clipPath></defs><g clip-path="url(#a)"><path d="M15.716,7.371a4.229,4.229,0,1,1,5.49.1l.2.1a8.452,8.452,0,0,1,3.448,2.578.408.408,0,0,0,.4.2,8.644,8.644,0,0,0,.971-.1,2.345,2.345,0,0,0,1.54-3.113A2.37,2.37,0,0,0,24.52,5.831a1.4,1.4,0,0,1-.335.134.7.7,0,0,1-.77-.469.742.742,0,0,1,.368-.87,3.8,3.8,0,0,1,4.486,6.026l-.2.2a1.189,1.189,0,0,0,.3.134,7.051,7.051,0,0,1,4.251,5.524,8.242,8.242,0,0,1,.067.87v4.184a.7.7,0,0,1-.5.7.653.653,0,0,1-.77-.268,1.183,1.183,0,0,1-.134-.569v-3.85a5.787,5.787,0,0,0-5.289-5.758h-.134a.364.364,0,0,1,.033.167,8.016,8.016,0,0,1,.6,3.08V21.9a3.885,3.885,0,0,1-3.548,3.95c-.167.033-.234.067-.234.234V35.29a.123.123,0,0,0,.033.1h1.942V27.523a.714.714,0,0,1,.736-.7.67.67,0,0,1,.67.736V35.39H27.9V17.815c0-.536.3-.87.8-.837a.677.677,0,0,1,.6.6V35.39h5.657a.746.746,0,0,1,.837.7c0,.435-.335.7-.837.7H.819a.718.718,0,0,1-.736-.4.658.658,0,0,1,.067-.736.813.813,0,0,1,.7-.3H6.912v-.469c0-5.691.033-11.415.033-17.106,0-.5.268-.837.67-.837.435-.033.736.3.736.8V21.7c0,4.452-.033,8.9-.033,13.357v.3h2.109V27.624a.747.747,0,0,1,.6-.8.723.723,0,0,1,.837.77v7.8h1.741V25.883c-.167-.033-.368-.067-.569-.1A3.886,3.886,0,0,1,9.992,21.9V15.1a7.7,7.7,0,0,1,.6-3.113c.033-.067.033-.1.1-.234a8.746,8.746,0,0,0-1.071.2,5.642,5.642,0,0,0-4.352,4.62,5.067,5.067,0,0,0-.067,1v3.95a.71.71,0,0,1-1.038.67.676.676,0,0,1-.368-.67c0-1.54-.067-3.08.067-4.62A6.934,6.934,0,0,1,8.017,11.02c.234-.1.469-.2.736-.3a1.546,1.546,0,0,0-.234-.234,3.8,3.8,0,0,1,4.519-5.925.749.749,0,0,1,.469.77.71.71,0,0,1-.6.6,1.576,1.576,0,0,1-.536-.134A2.413,2.413,0,0,0,8.987,8.074a2.365,2.365,0,0,0,2.477,2.276.382.382,0,0,0,.2-.1A8.524,8.524,0,0,1,15.649,7.4c.033,0,.033-.033.067-.033m7.063,17.073A2.482,2.482,0,0,0,25.123,22V14.9a6.034,6.034,0,0,0-.636-2.645,6.9,6.9,0,0,0-7.666-3.682,6.671,6.671,0,0,0-5.356,6.662c.033,2.243,0,4.486,0,6.729a2.512,2.512,0,0,0,1.841,2.444c.1.033.234.033.368.067V15.238a.725.725,0,0,1,.7-.67.753.753,0,0,1,.736.636V35.457h2.209c.368,0,.368,0,.368-.368V25.347a.648.648,0,0,1,.435-.569.711.711,0,0,1,.971.736v9.942h2.209V15.238a.69.69,0,0,1,.77-.636c.4.033.636.335.636.837v8.737c.067.033.067.134.067.268M18.528,6.969A2.822,2.822,0,0,0,21.34,4.191a2.8,2.8,0,1,0-5.59,0,2.772,2.772,0,0,0,2.778,2.778" transform="translate(0 0)"/><path d="M12.953,71.221a.7.7,0,1,1-.7-.7.686.686,0,0,1,.7.7" transform="translate(-7.682 -46.912)"/><path d="M94.953,71.254a.73.73,0,0,1-.7.7.715.715,0,0,1-.7-.736.707.707,0,0,1,.7-.7.7.7,0,0,1,.7.736" transform="translate(-62.231 -46.912)"/></g></svg>