<svg xmlns="http://www.w3.org/2000/svg" xmlns:xlink="http://www.w3.org/1999/xlink" width="36.436" height="33.338" viewBox="0 0 36.436 33.338"><defs><clipPath id="a"><rect width="36.436" height="33.338" fill="none"/></clipPath></defs><g transform="translate(0 0)" clip-path="url(#a)"><path d="M84.582,40.477a3.371,3.371,0,0,1-3.265-2.6,6.461,6.461,0,0,1,4.042-7.549,4,4,0,0,1,1.148-.173A3.409,3.409,0,0,1,89.894,33c.018.107.046.221.075.334s.053.213.071.319l0,1.127c-.046.162-.091.326-.136.491a12.1,12.1,0,0,1-.585,1.779,5.734,5.734,0,0,1-3.466,3.218,4.143,4.143,0,0,1-1.27.209m1.982-9.2a3.411,3.411,0,0,0-1.235.256,4.207,4.207,0,0,0-1.906,1.56,5.074,5.074,0,0,0-.979,4.579,2.07,2.07,0,0,0,2.341,1.692,3.972,3.972,0,0,0,1.644-.576,5.7,5.7,0,0,0,2.494-4.639v-.02l0-.02a2.791,2.791,0,0,1-.035-.312c-.009-.115-.019-.234-.037-.344a2.358,2.358,0,0,0-2.284-2.177" transform="translate(-53.604 -19.931)"/><path d="M36.742,59.275a7.225,7.225,0,0,1-1.616-.191,14.5,14.5,0,0,0-3.461-.414,17.012,17.012,0,0,0-3.805.45,6.332,6.332,0,0,1-7.448-4.365,5.632,5.632,0,0,1,1.427-5.721,20.989,20.989,0,0,0,4.18-5.994,6.7,6.7,0,0,1,1.9-2.549,6.137,6.137,0,0,1,3.87-1.251,5.888,5.888,0,0,1,5.07,3.258c.151.277.3.556.449.836.535,1,1.087,2.038,1.725,2.995a13.1,13.1,0,0,0,2.118,2.416A6.059,6.059,0,0,1,43,53.162a5.752,5.752,0,0,1-1.741,4.2,6.388,6.388,0,0,1-4.517,1.914M31.6,57.52A15.031,15.031,0,0,1,35.344,58a5.335,5.335,0,0,0,1.325.17,5.606,5.606,0,0,0,2.907-.848A4.866,4.866,0,0,0,41.919,53.6a4.761,4.761,0,0,0-1.508-4.025,17.357,17.357,0,0,1-2.292-2.62,24.972,24.972,0,0,1-1.965-3.491l-.3-.6a4.765,4.765,0,0,0-4.3-2.542,4.577,4.577,0,0,0-2.232.566,5.1,5.1,0,0,0-2.27,2.533,19.345,19.345,0,0,1-4.407,6.338,4.472,4.472,0,0,0-1.37,3.267.191.191,0,0,0-.075.153V53.2l0,.018c.037.156.071.314.105.472a8.917,8.917,0,0,0,.379,1.387,5.26,5.26,0,0,0,4.8,3.074h0A5.261,5.261,0,0,0,27.748,58,16.376,16.376,0,0,1,31.6,57.52" transform="translate(-13.33 -25.936)"/><path d="M62.326,11.47a3.3,3.3,0,0,1-2.741-1.637,7.389,7.389,0,0,1-1-4.136,6.927,6.927,0,0,1,1.83-4.445A3.536,3.536,0,0,1,62.972,0,3.344,3.344,0,0,1,65.78,1.742,7.44,7.44,0,0,1,64.631,10.5a3.413,3.413,0,0,1-2.3.97m.649-10.354a2.05,2.05,0,0,0-1.032.295,3.427,3.427,0,0,0-.551.42c-.057.05-.113.1-.169.145A6.615,6.615,0,0,0,59.7,6.092a5.683,5.683,0,0,0,.87,3.252,2.2,2.2,0,0,0,1.741,1.062,1.692,1.692,0,0,0,.98-.321,4.891,4.891,0,0,0,1.133-1.057A6.2,6.2,0,0,0,65.6,5.219a5.215,5.215,0,0,0-.834-2.988,2.153,2.153,0,0,0-1.785-1.115" transform="translate(-38.72 -0.003)"/><path d="M29.184,11.454a3.274,3.274,0,0,1-1.958-.712,6.231,6.231,0,0,1-2.36-4.194,8.464,8.464,0,0,0-.073-1.1,6.559,6.559,0,0,1,1.216-4.1A3.224,3.224,0,0,1,28.553,0a3.288,3.288,0,0,1,2.113.822,6.29,6.29,0,0,1,2.112,3.873,7.111,7.111,0,0,1-.608,4.7A3.607,3.607,0,0,1,30.2,11.27a3.047,3.047,0,0,1-1.018.183M28.538,1.122a1.82,1.82,0,0,0-1.337.607,4.712,4.712,0,0,0-.839,1.3A6.2,6.2,0,0,0,26.1,6.717a5.328,5.328,0,0,0,1.818,3.174,2.1,2.1,0,0,0,1.3.509A2.03,2.03,0,0,0,30.7,9.655a5.524,5.524,0,0,0,1.143-3.664l-.026-.251a8.036,8.036,0,0,0-.162-1.04,5.2,5.2,0,0,0-1.895-3.136,2.024,2.024,0,0,0-1.224-.442" transform="translate(-16.388 0)"/><path d="M5.406,40.338a4.04,4.04,0,0,1-1.928-.513A6.745,6.745,0,0,1,0,33.871a4.44,4.44,0,0,1,.744-2.444,3.338,3.338,0,0,1,2.779-1.459,4.021,4.021,0,0,1,1.51.305,6.65,6.65,0,0,1,3.76,7.234,3.481,3.481,0,0,1-3.385,2.831M3.52,31.111a2.159,2.159,0,0,0-1.827,1.02,3.645,3.645,0,0,0-.577,2.138,5.526,5.526,0,0,0,2.909,4.625,2.981,2.981,0,0,0,1.4.385h0a2.382,2.382,0,0,0,2.276-2.027,4.962,4.962,0,0,0-.451-3.3A4.963,4.963,0,0,0,4.486,31.3a2.72,2.72,0,0,0-.966-.188" transform="translate(0 -19.807)"/><path d="M67.6,66.848a.441.441,0,0,1-.342-.166,10.014,10.014,0,0,1-1.022-1.13c-.512-.658-1.029-1.36-1.529-2.039a.572.572,0,0,1,.067-.863.485.485,0,0,1,.3-.106.719.719,0,0,1,.541.3c.878,1.078,1.736,2.174,2.385,3.009a1.765,1.765,0,0,1,.174.315l.012.025a.589.589,0,0,1-.353.6.527.527,0,0,1-.236.06" transform="translate(-42.662 -41.338)"/><path d="M61.071,56.236a.539.539,0,0,1-.539-.539.539.539,0,1,1,1.078,0,.449.449,0,0,1-.119.355.565.565,0,0,1-.42.184" transform="translate(-40.009 -36.457)"/></g></svg>