<svg xmlns="http://www.w3.org/2000/svg" xmlns:xlink="http://www.w3.org/1999/xlink" width="45.926" height="36.796" viewBox="0 0 45.926 36.796"><defs><clipPath id="a"><rect width="45.926" height="36.796" fill="none"/></clipPath></defs><g transform="translate(0 0)" clip-path="url(#a)"><path d="M15.021,36.8a.483.483,0,0,0-.071-.032.572.572,0,0,1-.054-.023l-.016-.008-.018,0a2.3,2.3,0,0,1-1.844-2.392V16.151h-.172a.137.137,0,0,1,.135.135l-.335-.054a1.058,1.058,0,0,1-.064.142,1.564,1.564,0,0,0-.082.187c-.253.65-.509,1.317-.765,1.984s-.511,1.333-.767,1.99a2.155,2.155,0,0,1-2,1.376,2.083,2.083,0,0,1-1.617-.766,1.51,1.51,0,0,1-.368-.631,1.325,1.325,0,0,0-.613-.787c-.26-.167-.513-.348-.766-.529s-.516-.368-.776-.536l-.1-.063-.095.067c-.075.053-.146.109-.217.165a1.987,1.987,0,0,1-.512.326,1.6,1.6,0,0,1-.682.167A1.534,1.534,0,0,1,2.315,19c-.611-.432-1.231-.905-1.831-1.364l-.03-.023a1,1,0,0,1-.222-1.478c.432-.576.878-1.171,1.318-1.794a1.013,1.013,0,0,1,.822-.489,1.259,1.259,0,0,1,.728.274c.255.183.51.373.765.565s.514.385.771.569a1.7,1.7,0,0,1,.6,2.422l-.058.132.12.08c.108.072.224.153.341.233s.242.168.353.242c.206.138.446.308.686.48L6.9,19l.08-.206c.214-.551.423-1.1.629-1.651.281-.745.572-1.515.868-2.257l.879-2.417a5.5,5.5,0,0,1,4.582-3.8l.08,0h.294l-.144-.256c-.1-.18-.212-.352-.322-.523a3.82,3.82,0,0,1-.574-1.149c-.393-1.6-.629-3.457.591-5.083a4.154,4.154,0,0,1,7.474,2.315A12.441,12.441,0,0,1,21.3,6a4.056,4.056,0,0,1-1.16,2.312l-.238.251.343.038a6.614,6.614,0,0,1,.891.142,4.151,4.151,0,0,1,3.3,4.072q0,1.461-.008,2.922c-.008,1.917-.016,3.9.008,5.849a2.167,2.167,0,0,1-.6,1.581,1.964,1.964,0,0,1-1.391.6,1.914,1.914,0,0,1-.73-.146l-.031-.013h-.034a.116.116,0,0,1-.069-.018l-.248-.124v.716q0,1.608-.008,3.215c-.008,2.108-.016,4.289.008,6.434.041,1.657-.52,2.5-1.935,2.9h-.745c-.322-.139-.645-.293-.958-.441-.172-.082-.34-.161-.5-.237l-.075-.034-.406.205c-.346.176-.7.359-1.084.522a2.073,2.073,0,0,1-.607.059m-1.1-2.277a1.428,1.428,0,0,0,.951,1.293,1.411,1.411,0,0,0,.486.087,1.366,1.366,0,0,0,.976-.41,1.47,1.47,0,0,0,.416-1.044V27.589l-.13-.032c-.89-.223-1.7-.444-2.481-.657l-.217-.059Zm6.234-7.585c-.568.136-1.157.291-1.766.452l-.778.2v6.966a1.3,1.3,0,0,0,.955,1.258,1.436,1.436,0,0,0,.476.083h0a1.3,1.3,0,0,0,.969-.429A1.554,1.554,0,0,0,20.4,34.41V27.321a.839.839,0,0,0-.027-.182c0-.019-.008-.035-.01-.047v-.217ZM16.171,13.812a.545.545,0,0,0-.6.454,2.767,2.767,0,0,1-1.38,1.723.586.586,0,0,0-.308.589c.036,1.464.036,2.912.036,4.312V25.2a.609.609,0,0,0,.351.629,5.762,5.762,0,0,0,5.861-.04.724.724,0,0,0,.307-.552v-8.7a.858.858,0,0,0-.233-.487l-.015-.015-.018-.011a3.066,3.066,0,0,1-1.422-1.8.534.534,0,0,0-.566-.414Zm4.714-.753c.334,0,.429.273.45.5v8.352a1.155,1.155,0,0,0,1.121,1.049,1.08,1.08,0,0,0,1.086-1.121q0-1.514.008-3.038c.008-2,.016-4.075-.008-6.1A3.266,3.266,0,0,0,20.294,9.61h-.071a.494.494,0,0,0-.451.3,7.638,7.638,0,0,0-.812,2.855.792.792,0,0,0,.175.437c.069.121.162.261.256.4s.169.253.238.372a4.5,4.5,0,0,0,.214.586c.039.1.08.191.115.286L20,14.96h.119a.285.285,0,0,0,.114-.027H20.4l.032-.182V13.545a.435.435,0,0,1,.45-.486M14.14,9.637a.625.625,0,0,0-.122.012,4.63,4.63,0,0,0-3.743,2.992c-.148.369-.279.742-.4,1.1s-.255.727-.4,1.089c-.275.751-.557,1.507-.84,2.263s-.568,1.521-.843,2.273A1.2,1.2,0,0,0,8.6,21.018a1.218,1.218,0,0,0,.361.057,1.364,1.364,0,0,0,1.2-.956c.478-1.213.944-2.429,1.41-3.644s.931-2.429,1.406-3.634c.134-.366.336-.408.476-.408a.648.648,0,0,1,.076,0c.238.026.359.215.359.56.036.554.036,1.137.036,1.754v.172h.172a.143.143,0,0,0,.11.036H14.3l.047-.095c.061-.121.115-.242.168-.36.076-.168.146-.327.229-.472a3.9,3.9,0,0,1,.249-.41,4.06,4.06,0,0,0,.267-.439.727.727,0,0,0,.128-.406,8.2,8.2,0,0,0-.783-2.812.493.493,0,0,0-.47-.329m-11.847,5.2c-.146.2-.285.4-.421.588-.309.434-.6.843-.928,1.272l-.107.14.143.1c.257.186.5.366.745.543.376.276.742.543,1.12.81a.739.739,0,0,0,.427.146.66.66,0,0,0,.543-.3c.176-.2.341-.428.5-.649.065-.089.128-.177.192-.262a.684.684,0,0,0-.064-.966c-.386-.317-.761-.6-1.16-.9-.244-.184-.492-.369-.746-.567l-.14-.109ZM15.7,9.905c.249,1,.5,1.992.747,2.952l.033.129h1.4l.032-.131c.25-1.035.5-2.017.75-2.967l.072-.278h-3.11Zm1.506-9a3.261,3.261,0,0,0-3.209,2.672,8.433,8.433,0,0,0-.079,1.557c0,.125,0,.249,0,.371a3.245,3.245,0,0,0,2.859,3.131c.118.011.233.016.347.016a3.169,3.169,0,0,0,3.2-2.527,4.947,4.947,0,0,0,.127-.979c.007-.107.013-.214.022-.321l.016-.186h-.051V4.009A3.248,3.248,0,0,0,17.426.914Q17.314.906,17.2.906" transform="translate(0 0)"/><path d="M79.079,36.942c-.371-.161-.721-.339-1.06-.512l-.4-.2-.075.035c-.164.076-.331.155-.5.236-.313.149-.636.3-.959.442H75.34c-1.415-.4-1.976-1.238-1.935-2.893.024-2.147.016-4.328.008-6.436Q73.408,26,73.406,24.4V23.68l-.249.125a.114.114,0,0,1-.069.018h-.034l-.031.013a1.913,1.913,0,0,1-.73.146,1.963,1.963,0,0,1-1.391-.6,2.165,2.165,0,0,1-.6-1.58c.024-1.952.016-3.934.008-5.851Q70.3,14.5,70.3,13.033a4.15,4.15,0,0,1,3.3-4.071,6.707,6.707,0,0,1,.9-.143l.343-.038-.238-.25a4.059,4.059,0,0,1-1.16-2.314A12.5,12.5,0,0,1,73.405,4.2a4.153,4.153,0,0,1,7.474-2.318c1.22,1.626.984,3.481.592,5.081A3.824,3.824,0,0,1,80.9,8.114c-.11.171-.221.344-.322.524l-.144.256h.4a5.494,5.494,0,0,1,4.552,3.8l.877,2.412c.3.746.588,1.514.868,2.258.207.55.416,1.1.631,1.655a4.629,4.629,0,0,1,.07,1.594l-.008.083a1.507,1.507,0,0,1-.352.588,2.094,2.094,0,0,1-1.626.777h0a2.157,2.157,0,0,1-2-1.377c-.255-.656-.511-1.323-.767-1.989s-.512-1.334-.768-1.992a1.4,1.4,0,0,0-.079-.179,1.12,1.12,0,0,1-.064-.142l-.335.055a.137.137,0,0,1,.135-.135H81.8V34.483a2.3,2.3,0,0,1-1.844,2.391l-.018,0-.016.008a.508.508,0,0,1-.054.023.483.483,0,0,0-.071.032Zm1.563-9.9c-.784.214-1.6.435-2.481.657l-.13.032v6.857a1.393,1.393,0,0,0,1.875,1.368,1.43,1.43,0,0,0,.954-1.294V26.986Zm-6.238.239a.863.863,0,0,0-.027.182v7.089a1.413,1.413,0,0,0,1.361,1.487,1.449,1.449,0,0,0,.475-.082,1.3,1.3,0,0,0,.956-1.259V27.736l-.778-.2c-.608-.16-1.2-.316-1.765-.451l-.212-.05v.211c0,.011-.005.026-.009.043M76.6,13.958a.532.532,0,0,0-.565.41,3.068,3.068,0,0,1-1.423,1.807l-.018.011-.015.015a.859.859,0,0,0-.233.486v8.7a.725.725,0,0,0,.3.545,5.763,5.763,0,0,0,5.877.045.606.606,0,0,0,.346-.626V21.036c0-1.4,0-2.848.036-4.307a.585.585,0,0,0-.3-.59,2.771,2.771,0,0,1-1.384-1.725.547.547,0,0,0-.6-.455Zm-2.113-4.2a3.266,3.266,0,0,0-3.247,3.092c-.025,2.026-.016,4.1-.008,6.1q.006,1.522.008,3.038a1.08,1.08,0,0,0,1.085,1.122,1.151,1.151,0,0,0,1.12-1.024l0-.426V13.691c.02-.213.115-.486.45-.486a.435.435,0,0,1,.449.486v1.378h.172a.424.424,0,0,0,.146.037h.119l.37-.989c.06-.1.149-.233.238-.366s.187-.281.262-.412a.768.768,0,0,0,.169-.414A7.715,7.715,0,0,0,75,10.033a.488.488,0,0,0-.446-.278Zm6.849,2.824c.141,0,.343.042.475.4.476,1.21.942,2.424,1.408,3.639s.933,2.431,1.408,3.637a1.367,1.367,0,0,0,1.2.962,1.228,1.228,0,0,0,.364-.058,1.2,1.2,0,0,0,.8-1.652c-.274-.748-.558-1.509-.842-2.27s-.565-1.511-.838-2.258c-.147-.367-.276-.737-.4-1.094s-.257-.735-.4-1.1a4.634,4.634,0,0,0-3.748-2.992.615.615,0,0,0-.117-.011.5.5,0,0,0-.473.336,8.172,8.172,0,0,0-.779,2.791.762.762,0,0,0,.138.437,3.969,3.969,0,0,0,.256.421,3.739,3.739,0,0,1,.245.4c.087.152.158.311.233.479.053.119.108.24.169.362l.047.095h.106a.282.282,0,0,0,.132-.037h.172L80.86,14.9c0-.617,0-1.2.036-1.743,0-.357.121-.545.359-.571a.656.656,0,0,1,.076,0m-5.214-2.545c.246.949.5,1.932.75,2.967l.032.131h1.4L78.333,13c.256-.987.512-2.01.768-3.034l.053-.214h-3.11ZM74.305,4.973c.009.107.015.213.022.319a4.958,4.958,0,0,0,.13.99,3.165,3.165,0,0,0,3.2,2.516c.114,0,.229-.005.345-.015a3.244,3.244,0,0,0,2.86-3.127c0-.127,0-.251,0-.376a8.426,8.426,0,0,0-.079-1.558,3.26,3.26,0,0,0-3.209-2.671q-.111,0-.224.008a3.246,3.246,0,0,0-3.009,3.086v.64H74.29Z" transform="translate(-46.794 -0.146)"/><path d="M115.264,78.674c-.347-.139-.379-.218-.319-.638a16.851,16.851,0,0,0,.294-3.318c-.037-.667-.111-1.338-.184-1.987a1.6,1.6,0,0,1,.732-1.777l.092-.064-.022-.111c-.054-.273-.1-.546-.146-.82s-.092-.549-.146-.824c-.055-.332.06-.508.374-.565a1.785,1.785,0,0,1,.228-.037c.077-.009.159-.019.25-.037l.138-.027v-.141a.6.6,0,0,0-.024-.151.368.368,0,0,1-.013-.068c-.332-1.853-.806-4.524-.806-4.524a.451.451,0,0,0-.017-.11.506.506,0,0,1-.017-.116.383.383,0,0,1,.361-.378.4.4,0,0,1,.052,0,.389.389,0,0,1,.376.3.447.447,0,0,0,.026.12.127.127,0,0,1,.009.037c.24,1.343.322,1.792.4,2.239s.164.9.4,2.213a.448.448,0,0,0,.017.109.515.515,0,0,1,.017.116v.21l.284-.057a1.9,1.9,0,0,1,.4-.054.965.965,0,0,1,.153-.016.406.406,0,0,1,.408.386c.056.259.1.513.146.767s.092.516.147.773a.462.462,0,0,0,.3.347,1.352,1.352,0,0,1,1.091,1.108,15.634,15.634,0,0,0,1.957,5.064,1.622,1.622,0,0,1,.16.275.948.948,0,0,0,.021.148.56.56,0,0,1,.015.112.548.548,0,0,1-.221.312c-.81.141-1.624.283-2.427.456-.157-.094-.314-.191-.439-.284l-.853-.855-.179.4c-.109.247-.2.459-.321.695a3.992,3.992,0,0,1-.3.421,14.941,14.941,0,0,0-2.421.354m3.428-7.5a.964.964,0,0,0-.188.019c-.378.06-.763.131-1.141.2-.3.057-.606.113-.9.162a.809.809,0,0,0-.6.326.938.938,0,0,0-.095.673,13.365,13.365,0,0,1,.182,3.613c-.015.161-.035.334-.057.517-.033.273-.068.567-.09.874l-.016.23.225-.05c.149-.033.3-.059.444-.084.177-.03.349-.06.51-.1a.606.606,0,0,0,.357-.254c.193-.455.376-.9.6-1.375.1-.21.24-.33.392-.33a.492.492,0,0,1,.348.19c.167.185.342.361.518.537s.342.342.5.522a.423.423,0,0,0,.274.167,11.268,11.268,0,0,0,1.12-.184l.221-.044-.11-.247a.286.286,0,0,0-.085-.121,15.57,15.57,0,0,1-1.708-4.651.707.707,0,0,0-.708-.593m-1.065-2.137c-.354.071-.72.144-1.08.18l-.171.017.017.171c.037.374.112.75.185,1.113l.033.168.169-.033c.362-.072.726-.144,1.08-.18l.189-.019-.037-.186c-.071-.355-.144-.723-.181-1.079L117.813,69Z" transform="translate(-76.496 -41.921)"/></g></svg>