<svg id="Layer_2" data-name="Layer 2" xmlns="http://www.w3.org/2000/svg" width="371.345" height="51.033" viewBox="0 0 371.345 51.033">
  <g id="Layer_1" data-name="Layer 1">
    <g id="Group_3451" data-name="Group 3451" transform="translate(296.178)">
      <path id="Rectangle_1374" data-name="Rectangle 1374" d="M461.888,0h8.889V8.175l-10.317,1.7Z" transform="translate(-460.46)" fill="#6bb3bc"/>
    </g>
    <path id="Path_1" data-name="Path 1" d="M8.433,24.6V45.826c0,4.117,2.419,6.471,6.471,6.471a11.842,11.842,0,0,0,4.837-1.048V53.6a13.752,13.752,0,0,1-5.686,1.177c-5.294.019-8.433-3.37-8.433-9.159V24.6H0V22.116H5.95V10.68H8.761V22.116c0,3.216-.315.27-2.573.27v-.27H20.2V24.6Z" transform="translate(0 -3.81)" fill="#231f20"/>
    <path id="Path_2" data-name="Path 2" d="M68.617,30.071V50.332H65.806V30.071c0-6.278-3.6-9.938-9.648-9.938-6.8,0-10.851,4.638-10.851,12.549v17.65H42.47V0h2.811V29.087h.1c0-7.217,4.271-11.436,11.4-11.436C64.237,17.65,68.617,22.294,68.617,30.071Z" transform="translate(-15.152)" fill="#231f20"/>
    <path id="Path_3" data-name="Path 3" d="M125.3,44.83H99.959c.2,8.5,4.38,13.463,11.244,13.463,6.143,0,10.33-3.467,11.244-9.282H125.3c-.913,7.384-6.143,11.765-14.151,11.765-8.889,0-14.151-6.143-14.151-16.6s5.229-16.724,14.151-16.724S125.3,33.657,125.3,44.174ZM100.01,42.347h22.352c-.521-7.841-4.638-12.421-11.179-12.421s-10.632,4.58-11.153,12.421Z" transform="translate(-34.607 -9.794)" fill="#231f20"/>
    <path id="Path_4" data-name="Path 4" d="M208.865,33.924c0,10.716-4.9,17.058-13.141,17.058-7.32,0-11.7-4.445-11.7-11.964H183.9V50.326H175.27V0H183.9V28.758h.129c0-7.449,4.38-11.893,11.7-11.893C203.964,16.865,208.865,23.207,208.865,33.924Zm-8.825,0c0-6.432-3.075-10.292-8.3-10.292s-8.278,4.213-8.278,10.292,3.075,10.2,8.3,10.2S200.04,40.33,200.04,33.924Z" transform="translate(-62.532)" fill="#231f20"/>
    <path id="Path_5" data-name="Path 5" d="M238.06,0h8.626V50.332H238.06Z" transform="translate(-84.935)" fill="#231f20"/>
    <path id="Path_6" data-name="Path 6" d="M294.537,27.24v32.8h-8.626V48.466h-.129c0,7.648-3.789,12.221-10.259,12.221-7.075,0-11.243-5.036-11.243-13.463V27.24h8.626V46.845c0,4.445,2.29,6.992,6.143,6.992,4.316,0,6.863-3.268,6.863-8.889V27.24Z" transform="translate(-94.289 -9.719)" fill="#231f20"/>
    <path id="Path_7" data-name="Path 7" d="M354.083,44.284H330.148c.328,6.014,3.216,9.545,7.841,9.545,4.052,0,6.863-2.219,7.719-5.789h8.362c-1.177,7.777-7.191,12.356-16.081,12.356-10.2,0-16.209-6.342-16.209-17.058s6.014-17.058,16.209-17.058c10.066,0,16.081,6.278,16.081,17.058Zm-23.87-2.94H345.65c-.521-5.493-3.332-8.626-7.648-8.626S330.8,35.851,330.213,41.344Z" transform="translate(-114.804 -9.376)" fill="#231f20"/>
    <path id="Path_8" data-name="Path 8" d="M438.114,50.332H427.527L413.144,33.538h-.129V50.332H404.39V0h8.626V32.946h.129l13.27-15.437h10.2L422.69,33.139Z" transform="translate(-144.277)" fill="#231f20"/>
    <rect id="Rectangle_2" data-name="Rectangle 2" width="8.626" height="32.811" transform="translate(297.818 17.521)" fill="#231f20"/>
    <path id="Path_9" data-name="Path 9" d="M498.6,27.1V42.916c0,3.075,1.962,4.837,5.229,4.837a9.4,9.4,0,0,0,4.374-1.029v6.432a17.831,17.831,0,0,1-7.127,1.505c-6.992,0-11.108-3.924-11.108-10.587V27.1H485.26V21.15h5.229V10.17h8.034V21.15c0,4.181-2.541-.225-7.77.753V21.15h18.01V27.1Z" transform="translate(-173.13 -3.628)" fill="#231f20"/>
    <path id="Path_10" data-name="Path 10" d="M559.41,44.284H535.488c.328,6.014,3.216,9.545,7.841,9.545,4.052,0,6.863-2.219,7.719-5.789h8.362c-1.177,7.777-7.191,12.356-16.081,12.356-10.2,0-16.209-6.342-16.209-17.058s6.014-17.058,16.209-17.058c10.066,0,16.081,6.278,16.081,17.058Zm-23.857-2.94H550.99c-.521-5.493-3.332-8.626-7.648-8.626S536.138,35.851,535.553,41.344Z" transform="translate(-188.065 -9.376)" fill="#231f20"/>
  </g>
</svg>
