<svg xmlns="http://www.w3.org/2000/svg" width="16.234" height="16.234" viewBox="0 0 16.234 16.234"><g transform="translate(-3 -3)"><path d="M16.915,5.319V3H3V8.8H8.218V19.234H19.234V5.319ZM4.16,7.638V4.16h11.6v1.16H8.218V7.638ZM18.075,18.075h-8.7V6.479h8.7Z"/><path d="M22.5,16.5h1.16v1.16H22.5Z" transform="translate(-11.963 -8.282)"/><path d="M28.5,16.5h4.059v1.16H28.5Z" transform="translate(-15.643 -8.282)"/><path d="M22.5,25.5h1.16v1.16H22.5Z" transform="translate(-11.963 -13.803)"/><path d="M28.5,25.5h4.059v1.16H28.5Z" transform="translate(-15.643 -13.803)"/><path d="M22.5,34.5h1.16v1.16H22.5Z" transform="translate(-11.963 -19.324)"/><path d="M28.5,34.5h4.059v1.16H28.5Z" transform="translate(-15.643 -19.324)"/></g></svg>