<svg xmlns="http://www.w3.org/2000/svg" width="16.384" height="17.021" viewBox="0 0 16.384 17.021"><g transform="translate(-5.333 -4)"><path d="M29.84,24.449a.637.637,0,0,0-.39-.615l-.923-.275c-.049-.132-.1-.264-.159-.39l.428-.791a.637.637,0,0,0-.115-.752l-.78-.774a.637.637,0,0,0-.752-.11l-.8.417a4.307,4.307,0,0,0-.417-.176l-.264-.868a.632.632,0,0,0-.61-.423h-1.1a.637.637,0,0,0-.61.45l-.258.846a4.262,4.262,0,0,0-.423.176l-.78-.417a.637.637,0,0,0-.747.11l-.8.769a.637.637,0,0,0-.115.758l.406.73a4.2,4.2,0,0,0-.17.406l-.868.258a.632.632,0,0,0-.456.61v1.1a.632.632,0,0,0,.456.6l.873.258a4.135,4.135,0,0,0,.17.4l-.428.8a.637.637,0,0,0,.115.752l.78.769a.637.637,0,0,0,.752.115l.813-.428a4.24,4.24,0,0,0,.4.159l.269.89a.637.637,0,0,0,.61.445h1.1a.637.637,0,0,0,.61-.45l.258-.868a3.336,3.336,0,0,0,.384-.159l.824.434a.637.637,0,0,0,.747-.11l.78-.769a.637.637,0,0,0,.115-.758l-.434-.8q.088-.187.159-.379l.89-.258a.632.632,0,0,0,.456-.61Zm-.879.9-1.159.341-.066.231a3.3,3.3,0,0,1-.275.654l-.115.209.549,1.049-.549.549-1.1-.549-.2.11a3.411,3.411,0,0,1-.659.269l-.231.066-.346,1.148h-.687l-.346-1.142-.231-.066a3.422,3.422,0,0,1-.665-.269l-.2-.11-1.066.549-.549-.549.549-1.066-.121-.209a3.3,3.3,0,0,1-.253-.7l-.093-.2-1.1-.346v-.719l1.1-.335.071-.225a3.262,3.262,0,0,1,.291-.676l.132-.242L21.091,22.1l.549-.516,1.038.549.209-.115a3.422,3.422,0,0,1,.692-.286l.225-.066.346-1.1h.758l.341,1.1.225.066a3.411,3.411,0,0,1,.67.286l.209.115,1.055-.549.549.549-.549,1.038.115.209a3.34,3.34,0,0,1,.275.665l.066.231,1.131.335Z" transform="translate(-8.123 -9.229)"/><path d="M29.086,27.133a2.2,2.2,0,1,0,2.241,2.2,2.23,2.23,0,0,0-2.241-2.2Zm0,3.548a1.335,1.335,0,1,1,1.362-1.335,1.351,1.351,0,0,1-1.362,1.34Z" transform="translate(-12.702 -13.604)"/><path d="M11.095,19.378H6.432V5.1H17.416V9.432a1.758,1.758,0,0,1,1.1.945V5.1a1.1,1.1,0,0,0-1.1-1.1H6.432a1.1,1.1,0,0,0-1.1,1.1v14.28a1.1,1.1,0,0,0,1.1,1.1H12.05l-.6-.593a1.708,1.708,0,0,1-.352-.505Z" transform="translate(0)"/></g></svg>