<svg xmlns="http://www.w3.org/2000/svg" width="16.809" height="14" viewBox="0 0 16.809 14"><g transform="translate(-1.988 -5.667)"><path d="M25.156,16.427l-3.009,2.958a1.527,1.527,0,1,0,.718.723l3.014-2.958Z" transform="translate(-11.108 -6.652)"/><path d="M10.392,5.667A8.395,8.395,0,0,0,3.978,19.488l.153.178H16.654l.153-.178A8.395,8.395,0,0,0,10.392,5.667Zm5.773,12.982H4.619a7.346,7.346,0,0,1-1.583-3.991H4.792V13.639H3.036A7.336,7.336,0,0,1,4.792,9.251L6.04,10.5l.718-.718L5.52,8.528A7.336,7.336,0,0,1,9.883,6.705V8.487H10.9V6.71a7.367,7.367,0,0,1,6.822,6.929H15.952v1.018h1.8a7.346,7.346,0,0,1-1.583,3.991Z" transform="translate(0 0)"/></g></svg>