<svg xmlns="http://www.w3.org/2000/svg" width="22.113" height="15.5" viewBox="0 0 22.113 15.5"><g transform="translate(-270.75 -24.75)"><path d="M20.613.75H0A.75.75,0,0,1-.75,0,.75.75,0,0,1,0-.75H20.613a.75.75,0,0,1,.75.75A.75.75,0,0,1,20.613.75Z" transform="translate(271.5 25.5)" fill="#707070"/><path d="M20.613.75H0A.75.75,0,0,1-.75,0,.75.75,0,0,1,0-.75H20.613a.75.75,0,0,1,.75.75A.75.75,0,0,1,20.613.75Z" transform="translate(271.5 32.5)" fill="#707070"/><path d="M20.613.75H0A.75.75,0,0,1-.75,0,.75.75,0,0,1,0-.75H20.613a.75.75,0,0,1,.75.75A.75.75,0,0,1,20.613.75Z" transform="translate(271.5 39.5)" fill="#707070"/></g></svg>