<svg xmlns="http://www.w3.org/2000/svg" width="16.734" height="16.733" viewBox="0 0 16.734 16.733"><g transform="translate(-4.5 -4.506)"><g transform="translate(4.5 4.506)"><path d="M15.592,30.445a.9.9,0,1,1-.9.9.9.9,0,0,1,.9-.9m0-1.2a2.092,2.092,0,1,0,2.092,2.092A2.092,2.092,0,0,0,15.592,29.25Z" transform="translate(-11.109 -22.677)"/><path d="M18.246,11.676H13.465a1.2,1.2,0,0,0-1.2,1.2v3.586H5.7V9.644l7.172-3.861,7.489,4.028.562-1.052L13.148,4.576a.6.6,0,0,0-.562,0L4.817,8.76a.6.6,0,0,0-.317.526V21.239H5.7V17.653H20.039v3.586h1.2V14.664A2.988,2.988,0,0,0,18.246,11.676Zm-4.781,4.781V12.872h4.781a1.793,1.793,0,0,1,1.793,1.793v1.793Z" transform="translate(-4.5 -4.506)"/></g></g></svg>