<svg xmlns="http://www.w3.org/2000/svg" width="16.118" height="16.118" viewBox="0 0 16.118 16.118"><g transform="translate(-2.667 -2.667)"><path d="M18.326,14.667a3.526,3.526,0,1,0,3.526,3.526A3.5,3.5,0,0,0,18.326,14.667Zm0,6.044a2.518,2.518,0,1,1,2.518-2.518A2.494,2.494,0,0,1,18.326,20.711Z" transform="translate(-7.55 -7.467)"/><path d="M18.18,9.063,16.77,8.61l-.3-.756.705-1.31a.847.847,0,0,0-.151-.957L15.813,4.379a.847.847,0,0,0-.957-.151l-1.31.705-.756-.3-.453-1.41a.819.819,0,0,0-.756-.554H9.869a.706.706,0,0,0-.705.6l-.453,1.41a2.225,2.225,0,0,0-.806.3L6.6,4.278a.847.847,0,0,0-.957.151L4.43,5.638a.847.847,0,0,0-.151.957l.655,1.259c-.1.252-.2.554-.3.806l-1.41.453a.819.819,0,0,0-.554.756v1.713a.8.8,0,0,0,.6.756l1.41.453.3.756-.705,1.31a.847.847,0,0,0,.151.957l1.209,1.209a.847.847,0,0,0,.957.151l1.31-.705.756.3.453,1.461a.819.819,0,0,0,.756.554h1.713a.819.819,0,0,0,.756-.554l.453-1.461.756-.3,1.31.705a.847.847,0,0,0,.957-.151l1.209-1.209a.847.847,0,0,0,.151-.957l-.705-1.31.3-.756,1.461-.453a.819.819,0,0,0,.554-.756V9.869a.862.862,0,0,0-.6-.806Zm-.4,2.367-1.813.554-.05.252-.453,1.058-.151.252.907,1.662-1.007,1.007-1.662-.907-.252.151a4.782,4.782,0,0,1-1.058.453l-.252.05-.554,1.813H10.02l-.554-1.813-.252-.05L8.157,15.46,7.9,15.309l-1.662.907L5.235,15.208l.907-1.662-.151-.252a4.782,4.782,0,0,1-.453-1.058l-.05-.252-1.813-.554V10.02l1.713-.5.1-.252a4.275,4.275,0,0,1,.453-1.108L6.092,7.9,5.235,6.243,6.243,5.235l1.612.907.252-.151a4.275,4.275,0,0,1,1.108-.453l.252-.1.554-1.763h1.41l.554,1.763.252.1a4.782,4.782,0,0,1,1.058.453l.252.151,1.662-.907,1.007,1.007L15.309,7.9l.151.252a4.782,4.782,0,0,1,.453,1.058l.05.252,1.813.554Z"/></g></svg>