<svg xmlns="http://www.w3.org/2000/svg" width="16.118" height="17.357" viewBox="0 0 16.118 17.357"><g transform="translate(-6 -3)"><path d="M29.828,30.108a2.452,2.452,0,0,0,1.252.351,2.483,2.483,0,0,0,2.48-2.48,2.444,2.444,0,0,0-.093-.634l-1.51,1.511A1.24,1.24,0,1,1,30.2,27.1l1.511-1.511a2.449,2.449,0,0,0-.634-.092,2.483,2.483,0,0,0-2.48,2.48,2.451,2.451,0,0,0,.351,1.252L25.5,32.682l.877.877Z" transform="translate(-11.441 -13.201)"/><path d="M19.638,4.24h-2.48V3h-1.24V4.24H10.959V3H9.719V4.24H7.24A1.24,1.24,0,0,0,6,5.48v12.4a1.24,1.24,0,0,0,1.24,1.24H12.2v-1.24H7.24V5.48h2.48v1.24h1.24V5.48h4.959v1.24h1.24V5.48h2.48v4.959h1.24V5.48A1.24,1.24,0,0,0,19.638,4.24Z" transform="translate(0)" fill-rule="evenodd"/></g></svg>